<svg xmlns="http://www.w3.org/2000/svg" width="100" height="100" viewBox="0 0 24 24" fill="#181717">
  <path d="M12 0c-6.627 0-12 5.373-12 12 0 5.303 3.438 9.8 8.205 11.387.6.111.82-.261.82-.577 0-.286-.011-1.04-.016-2.04-3.338.726-4.042-1.416-4.042-1.416-.546-1.387-1.333-1.756-1.333-1.756-1.089-.744.083-.729.083-.729 1.205.085 1.84 1.236 1.84 1.236 1.07 1.835 2.809 1.305 3.495.998.108-.775.418-1.305.762-1.605-2.665-.305-5.467-1.334-5.467-5.931 0-1.31.469-2.381 1.236-3.221-.124-.304-.536-1.527.117-3.176 0 0 1.008-.322 3.301 1.23.957-.266 1.984-.399 3.006-.404 1.021.005 2.049.138 3.006.404 2.291-1.552 3.297-1.23 3.297-1.23.653 1.649.241 2.872.118 3.176.77.84 1.235 1.911 1.235 3.221 0 4.609-2.807 5.624-5.479 5.921.43.371.814 1.102.814 2.222 0 1.606-.015 2.898-.015 3.293 0 .318.218.694.825.576 4.765-1.589 8.198-6.085 8.198-11.387 0-6.627-5.373-12-12-12z"/>
</svg>
