<svg xmlns="http://www.w3.org/2000/svg" width="100" height="100" viewBox="0 0 24 24" fill="#0A66C2">
  <path d="M19 0h-14c-2.761 0-5 2.239-5 5v14c0 2.761 2.239 5 5 5h14c2.761 0 5-2.239 5-5v-14c0-2.761-2.239-5-5-5zm-11 20h-3v-11h3v11zm-1.5-12.56c-.966 0-1.75-.784-1.75-1.75s.784-1.75 1.75-1.75 1.75.784 1.75 1.75-.784 1.75-1.75 1.75zm13.5 12.56h-3v-5.5c0-1.378-.45-2.313-1.625-2.313-.888 0-1.419.598-1.652 1.176-.085.207-.106.494-.106.781v5.856h-3v-11h3v1.528c.393-.606 1.092-1.475 2.656-1.475 1.938 0 3.375 1.265 3.375 3.986v6.961z"/>
</svg>
